<svg xmlns="http://www.w3.org/2000/svg" xmlns:xlink="http://www.w3.org/1999/xlink" width="36.17" height="36.17" viewBox="0 0 36.17 36.17"><defs><clipPath id="a" transform="translate(-665 -368.83)"><rect x="656" y="361.57" width="54.17" height="44.43" fill="none"/></clipPath></defs><title>instagram</title><g clip-path="url(#a)"><path d="M683.12,379.8a7,7,0,1,0,7.26,7,7.16,7.16,0,0,0-7.26-7m14,4.33H693.9a10.62,10.62,0,0,1,.46,3.1,11.25,11.25,0,0,1-22.49,0,10.58,10.58,0,0,1,.46-3.1H669v15.28a1.44,1.44,0,0,0,1.44,1.44h25.19a1.44,1.44,0,0,0,1.44-1.44Zm-5.73-11.28a1.63,1.63,0,0,0-1.63,1.63v3.9a1.63,1.63,0,0,0,1.63,1.63h4.09a1.63,1.63,0,0,0,1.63-1.63v-3.9a1.63,1.63,0,0,0-1.63-1.63Zm-21.71-4h26.89a4.53,4.53,0,0,1,4.64,4.64v26.89a4.53,4.53,0,0,1-4.64,4.64H669.64a4.53,4.53,0,0,1-4.64-4.64V373.47a4.53,4.53,0,0,1,4.64-4.64" transform="translate(-665 -368.83)" fill="#fff"/></g></svg>