<svg xmlns="http://www.w3.org/2000/svg" width="747.62" height="383.59" viewBox="0 0 747.62 383.59"><title>logo</title><path d="M468.14,154.06A111.61,111.61,0,0,0,411.9,362.11l28.82-52.24.06,0,3-5.47a46,46,0,1,1,44.4-80.6l24.91-45.15.06,0,6.59-11.94A111.66,111.66,0,0,0,468.14,154.06Z" fill="#fff"/><path d="M471.81,378.07a111.61,111.61,0,0,0,56.3-208l-28.84,52.23-.06,0-3,5.46a46,46,0,1,1-44.42,80.59l-24.92,45.14-.06,0-6.59,11.93A111.66,111.66,0,0,0,471.81,378.07Z" fill="#fff"/><polygon points="0 206.26 149.12 206.26 149.12 174.89 149.12 151.45 0 151.45 0 206.26" fill="#fff"/><polygon points="144.31 211.57 71.12 211.57 33.5 244.53 68.96 280.72 144.31 211.57" fill="#fff"/><polygon points="589 151.19 589 206 665.94 206 747.62 206 747.62 151.19 589 151.19" fill="#fff"/><polygon points="611.17 378.06 675.55 378.06 746.22 211.52 681.85 211.52 611.17 378.06" fill="#fff"/><path d="M260.5,297.35a75.84,75.84,0,1,0-75.84-75.84A75.84,75.84,0,0,0,260.5,297.35Zm0-97.28a21.44,21.44,0,1,1-21.44,21.44A21.44,21.44,0,0,1,260.5,200.07Z" fill="#fff"/><path d="M333.87,257a80.92,80.92,0,0,1-40.33,40.33,34,34,0,0,1-68.08-.48c0-.15,0-.3,0-.45A80.93,80.93,0,0,1,187.14,257a84.57,84.57,0,1,0,146.74,0Z" fill="#fff"/><path d="M122.74,239.11l-10.29,9.47L78.37,279.93a20.84,20.84,0,1,1-19.66,31.87H0a77.12,77.12,0,1,0,122.74-72.7Z" fill="#fff"/><path d="M22.46,89.57c-1.54-3.4.31-6,3.71-6.95l4.48-1.08c3.4-.77,5.25.46,6.95,3.71,3.86,6.64,12,11.89,22.85,11.89,13.9,0,22.39-6.79,22.39-16.06,0-8.18-6.79-13.28-15.6-16.52l-16.06-5.4c-20.38-6.79-25.33-19-25.33-29C25.86,11.43,42.22,0,60.91,0c17,0,29,8.18,34,20.38,1.39,3.4-.31,6-3.71,6.95l-3.86,1.24c-3.4.93-5.56-.31-7.1-3.55-3.55-7.1-10.19-10.5-19.15-10.5-10.19,0-18.69,5.56-18.69,15.13,0,4.48,1.39,10.35,13.74,15l16.06,6C90.4,56.36,98.74,68.41,98.74,80c0,19.46-15.44,31.5-38,31.5C41.61,111.49,28,102.23,22.46,89.57Z" fill="#fff"/><path d="M221,7.26V9.57c0,3.55-2,5.56-5.56,5.56H185.33v89.1c0,3.55-2,5.56-5.56,5.56h-5.09c-3.55,0-5.56-2-5.56-5.56V15.13H139c-3.4,0-5.56-2-5.56-5.56V7.26c0-3.55,2.16-5.56,5.56-5.56h76.44C219,1.7,221,3.71,221,7.26Z" fill="#fff"/><path d="M266,69.65V7.26c0-3.55,2.16-5.56,5.56-5.56h5.25c3.55,0,5.56,2,5.56,5.56V69.65c0,18.22,12.35,27.18,26.56,27.18,14.36,0,26.71-9,26.71-27.18V7.26c0-3.55,2-5.56,5.56-5.56h5.1c3.55,0,5.71,2,5.71,5.56V69.65c0,27.49-19.77,41.85-43.08,41.85C285.81,111.49,266,97.13,266,69.65Z" fill="#fff"/><path d="M407.58,104.24v-97c0-3.55,2-5.56,5.56-5.56h29.8c34.44,0,55.59,24.24,55.59,54s-21.16,54-55.59,54h-29.8C409.59,109.8,407.58,107.79,407.58,104.24Zm35.05-7.88c24.24,0,39.22-18.07,39.22-40.61s-15-40.61-39.22-40.61H423.95V96.36Z" fill="#fff"/><path d="M546.87,104.24v-97c0-3.55,2-5.56,5.56-5.56h5.25c3.55,0,5.56,2,5.56,5.56v97c0,3.55-2,5.56-5.56,5.56h-5.25C548.88,109.8,546.87,107.79,546.87,104.24Z" fill="#fff"/><path d="M615.89,55.75a56.21,56.21,0,1,1,56.21,55.75A55.92,55.92,0,0,1,615.89,55.75Zm95.74,0c0-23.32-17.76-41.08-39.53-41.08s-39.53,17.76-39.53,41.08,17.76,41.08,39.53,41.08S711.63,79.06,711.63,55.75Z" fill="#fff"/></svg>