<svg xmlns="http://www.w3.org/2000/svg" width="455.73" height="455.73" viewBox="0 0 455.73 455.73"><title>google-plus</title><path d="M0,0V455.73H455.73V0ZM265.67,247c-7.79,51.19-46,80.54-95.38,80.54a100.55,100.55,0,1,1,0-201.09c26.86,0,50.4,9.59,67.53,26.23L209,181.57c-9.77-9.85-23.15-15.09-38.67-15.09-32.69,0-59.19,27.87-59.19,60.55s26.5,59.77,59.19,59.77c27.4,0,48.14-13.24,54.13-39.76H170.29V206.66h95.13A117.83,117.83,0,0,1,267.15,227,132.7,132.7,0,0,1,265.67,247Zm120.75-12.52H351.19v35.22h-25V234.52H290.93v-25h35.23V174.24h25v35.23h35.23Z" fill="#fff"/></svg>