<svg xmlns="http://www.w3.org/2000/svg" width="458.87" height="458.81" viewBox="0 0 458.87 458.81"><title>instagram</title><path d="M404.75,0h-349C25.66,0,0,28.24,0,58.22V407.46c0,30,25.66,51.35,55.73,51.35h349c30.07,0,54.12-21.39,54.12-51.35V58.22C458.87,28.24,434.82,0,404.75,0ZM394,65.54a15.75,15.75,0,0,1,15.75,15.75v50.44A15.75,15.75,0,0,1,394,147.48H343.51a15.75,15.75,0,0,1-15.75-15.75V81.29a15.75,15.75,0,0,1,15.75-15.75Zm-163.18,80a87.84,87.84,0,1,1-88.05,87.83A87.95,87.95,0,0,1,230.77,145.54ZM409.71,395.75c0,7-7.49,13.91-14.56,13.91H66.41c-7.07,0-17.25-6.87-17.25-13.91V196.64H96.44c-3.22,16.39-5,24-5,36.74C91.49,310,154,372.31,230.77,372.31S370.06,310,370.06,233.36c0-12.69-1.74-20.33-4.94-36.72h44.59Z" fill="#fff"/></svg>