<svg xmlns="http://www.w3.org/2000/svg" width="455.73" height="455.73" viewBox="0 0 455.73 455.73"><title>youtube-1</title><path d="M218.75,171.39a6.92,6.92,0,0,0,6.91-6.91V115.73a6.91,6.91,0,0,0-13.82,0v48.75A6.92,6.92,0,0,0,218.75,171.39Z" fill="#fff"/><path d="M200.4,337.1a2.85,2.85,0,0,1-.31,1.65,17.78,17.78,0,0,1-7.88,6.17c-2.85,1-5.12-.23-5.72-3.19a18,18,0,0,1-.25-3.6c0-22-.07-67.26-.1-67.81H169.87c0,.61,0,63.59,0,75.49a22.83,22.83,0,0,0,1.69,9.41A9.4,9.4,0,0,0,179,361.1a15.26,15.26,0,0,0,7.64-.69c5.08-1.75,9.06-5.05,12.57-9,.31-.35.64-.69,1.23-1.32V360h16.31V316.73c0-15,0-46.55,0-46.55l-16.32,0Z" fill="#fff"/><path d="M277.51,277.33c-3.44-7.33-10.67-9.27-16.94-7.7a18.76,18.76,0,0,0-9.41,6,16.42,16.42,0,0,0-1.76,2.79v-40H233.06V359.94H249.4v-6.82L251,354.8a18.43,18.43,0,0,0,13.91,6.35c6.9.07,11.7-3.27,13.88-9.83a29.81,29.81,0,0,0,1.35-9.37q0-25.48,0-51A31.58,31.58,0,0,0,277.51,277.33Zm-14.22,62.59a13.1,13.1,0,0,1-.3,2.72c-.75,3.56-3.46,5.16-7.3,4.37a10.71,10.71,0,0,1-5.71-3.51c-.07-.08-.53-.7-.53-.7h0v-1.33l0-54h0a4.44,4.44,0,0,1,1.12-1.67,8.53,8.53,0,0,1,6.69-2.51,5.45,5.45,0,0,1,4.9,3.35,14.37,14.37,0,0,1,1.14,5.06c.08,15.94.05,31.88,0,47.83Z" fill="#fff"/><polygon points="169.91 238.41 113.31 238.41 113.31 255.82 132.38 255.82 132.38 359.95 150.8 359.95 150.8 255.78 169.91 255.78 169.91 238.41" fill="#fff"/><path d="M324.19,328.09v11.53a7.29,7.29,0,1,1-14.57,0V317.19h31.29s.18-15.65,0-22.75a48.23,48.23,0,0,0-.9-9.06c-1.62-7.68-5.75-13.47-13.48-16a28.49,28.49,0,0,0-7.1-1.29c-8-.51-14.91,1.76-20.35,7.85-4.77,5.33-6.43,11.75-6.44,18.71,0,13.31-.09,26.63,0,39.94a47.47,47.47,0,0,0,1.19,10.15c1.66,7.09,5.53,12.66,12.36,15.74,5,2.26,10.26,2.37,15.58,1.59,8.58-1.26,14.43-5.86,17.26-14.15,2.13-6.21,1.88-19.82,1.88-19.82Zm-14.57-37.4a7.29,7.29,0,1,1,14.57,0v12.59H309.62Z" fill="#fff"/><path d="M0,0V455.73H455.73V0ZM256.73,95h16.6v68.82a15.55,15.55,0,0,0,.23,2.73c.5,2.84,2.6,4.17,5.33,3.22a17.84,17.84,0,0,0,8-6.17,3,3,0,0,0,.25-1.68V95h16.72v90.24H287.16l0-9.7c-1.85,1.82-3.43,3.52-5.16,5.05a22.59,22.59,0,0,1-10.63,5.52c-6.25,1.22-11.58-.75-13.57-7.23a23.84,23.84,0,0,1-1.08-6.73Zm-38-2.26a23.94,23.94,0,0,1,23.94,23.94v46.86a23.94,23.94,0,1,1-47.89,0V116.68A23.94,23.94,0,0,1,218.75,92.73ZM154.34,63.07s7.6,32.3,11.23,47.6h0c3.63-15.3,11.23-47.6,11.23-47.6h19s-14.62,48.49-21.16,70.11a8.62,8.62,0,0,0-.34,2.45v49.58H156.81V135.63a8.62,8.62,0,0,0-.34-2.45c-6.54-21.62-21.16-70.11-21.16-70.11ZM363.58,350.86a40.77,40.77,0,0,1-39.89,40.77q-95.8,2.05-191.65,0a40.77,40.77,0,0,1-39.88-40.77V251.1A40.76,40.76,0,0,1,132,210.34q95.82-2.05,191.65,0a40.77,40.77,0,0,1,39.89,40.76Z" fill="#fff"/><rect x="249.43" y="287.5" height="53.97" fill="#005f83"/><path d="M324.19,290.68a7.29,7.29,0,1,0-14.57,0v12.59h14.57Z" fill="#005f83"/><path d="M323.69,210.34q-95.8-2.05-191.65,0A40.76,40.76,0,0,0,92.16,251.1v99.76A40.77,40.77,0,0,0,132,391.63q95.82,2.05,191.65,0a40.77,40.77,0,0,0,39.89-40.77V251.1A40.77,40.77,0,0,0,323.69,210.34ZM150.8,360H132.38V255.83H113.31V238.41h56.6v17.38H150.8Zm65.92-43.22V360H200.41v-9.88c-.59.63-.92,1-1.23,1.32-3.51,4-7.49,7.26-12.57,9a15.26,15.26,0,0,1-7.64.69,9.4,9.4,0,0,1-7.39-5.88,22.83,22.83,0,0,1-1.69-9.41c0-11.9,0-74.88,0-75.49h16.27c0,.55.09,45.76.1,67.81a18,18,0,0,0,.25,3.6c.6,3,2.87,4.23,5.72,3.19a17.78,17.78,0,0,0,7.88-6.17,2.85,2.85,0,0,0,.31-1.65V270.22l16.32,0S216.72,301.75,216.72,316.73Zm62.05,34.59c-2.18,6.56-7,9.9-13.88,9.83A18.43,18.43,0,0,1,251,354.8l-1.58-1.68v6.82H233.06V238.39H249.4v40a16.42,16.42,0,0,1,1.76-2.79,18.76,18.76,0,0,1,9.41-6c6.27-1.57,13.5.37,16.94,7.7a31.58,31.58,0,0,1,2.6,13.65q0,25.48,0,51A29.81,29.81,0,0,1,278.77,351.32Zm60.35-3.42c-2.83,8.29-8.68,12.89-17.26,14.15-5.32.78-10.59.67-15.58-1.59-6.83-3.08-10.7-8.65-12.36-15.74a47.47,47.47,0,0,1-1.19-10.15c-.13-13.31-.07-26.63,0-39.94,0-7,1.67-13.38,6.44-18.71,5.44-6.09,12.4-8.36,20.35-7.85a28.49,28.49,0,0,1,7.1,1.29c7.73,2.54,11.86,8.33,13.48,16a48.23,48.23,0,0,1,.9,9.06c.13,7.1,0,22.75,0,22.75H309.62v22.43a7.29,7.29,0,1,0,14.57,0V328.09H341S341.25,341.7,339.12,347.91Z" fill="#005f83"/><path d="M263,342.64c-.75,3.56-3.46,5.16-7.3,4.37A10.71,10.71,0,0,1,250,343.5c-.07-.08-.53-.7-.53-.7h0s.46.62.53.7a10.71,10.71,0,0,0,5.71,3.51c3.84.79,6.55-.81,7.3-4.37a13.1,13.1,0,0,0,.3-2.72v0A13.1,13.1,0,0,1,263,342.64Z" fill="#005f83"/><path d="M263.26,291.74a14.36,14.36,0,0,0-1.14-5.06,5.45,5.45,0,0,0-4.9-3.35,8.53,8.53,0,0,0-6.69,2.51,4.44,4.44,0,0,0-1.12,1.67l0,54h0v1.33s.46.62.53.7a10.71,10.71,0,0,0,5.71,3.51c3.84.79,6.55-.81,7.3-4.37a13.1,13.1,0,0,0,.3-2.72v-.36C263.31,323.61,263.34,307.67,263.26,291.74Z" fill="#005f83"/><path d="M263.26,291.73a14.37,14.37,0,0,0-1.14-5.06,5.45,5.45,0,0,0-4.9-3.35,8.53,8.53,0,0,0-6.69,2.51,4.44,4.44,0,0,0-1.12,1.67h0a4.44,4.44,0,0,1,1.12-1.67,8.53,8.53,0,0,1,6.69-2.51,5.45,5.45,0,0,1,4.9,3.35,14.36,14.36,0,0,1,1.14,5.06c.08,15.94.05,31.88,0,47.83C263.31,323.61,263.34,307.67,263.26,291.73Z" fill="#005f83"/><path d="M271.39,186.11A22.59,22.59,0,0,0,282,180.59c1.73-1.53,3.31-3.23,5.16-5.05l0,9.7h16.72V95H287.17v66.92a3,3,0,0,1-.25,1.68,17.84,17.84,0,0,1-8,6.17c-2.73.95-4.83-.39-5.33-3.22a15.55,15.55,0,0,1-.23-2.73V95h-16.6v77.16a23.84,23.84,0,0,0,1.08,6.73C259.81,185.36,265.14,187.34,271.39,186.11Z" fill="#005f83"/><path d="M156.82,135.63v49.58h17.55V135.63a8.62,8.62,0,0,1,.34-2.45c6.54-21.62,21.16-70.11,21.16-70.11h-19s-7.61,32.3-11.23,47.6h0c-3.63-15.3-11.23-47.6-11.23-47.6h-19s14.62,48.49,21.16,70.11A8.62,8.62,0,0,1,156.82,135.63Z" fill="#005f83"/><path d="M194.81,163.53a23.94,23.94,0,1,0,47.89,0V116.68a23.94,23.94,0,1,0-47.89,0Zm17-47.81a6.91,6.91,0,0,1,13.82,0v48.75a6.91,6.91,0,0,1-13.82,0Z" fill="#005f83"/></svg>